<?xml version="1.0" encoding="utf-8"?>
<!-- Generator: Adobe Illustrator 22.0.0, SVG Export Plug-In . SVG Version: 6.00 Build 0)  -->
<svg version="1.1" id="Layer_1" xmlns="http://www.w3.org/2000/svg" xmlns:xlink="http://www.w3.org/1999/xlink" x="0px" y="0px"
	 viewBox="0 0 206 147.2" style="enable-background:new 0 0 206 147.2;" xml:space="preserve">
<style type="text/css">
	.st0{fill:#F4A721;}
	.st1{fill:#4EC2EA;}
</style>
<g>
	<g>
		<path class="st0" d="M20.8,146.3v-16.1H6.5v16.1H0.2v-35.8h6.4v14h14.3v-14h6.3v35.8H20.8z"/>
		<path class="st0" d="M49.6,143.7c-0.6,0.9-1.5,1.7-2.9,2.2c-1.4,0.6-2.8,0.9-4.3,0.9c-2.8,0-5-0.7-6.7-2.1c-1.6-1.4-2.4-3.4-2.4-6
			c0-3,1.1-5.4,3.4-7.1c2.3-1.7,5.5-2.6,9.7-2.6c4.4,0,2.7-4.3-3.3-4.3c-2.3,0-4.2,0.4-5.8,1.1l-1.3-4.7c2.1-1,4.6-1.5,7.5-1.5
			c4,0,6.9,0.9,8.8,2.7c1.9,1.8,2.8,5.3,2.8,10.3v5.6c0,3.5,0.7,5.7,2.1,6.6c-0.5,0.9-1.7,1.9-3.8,1.9
			C51.1,146.8,49.9,144.4,49.6,143.7z M49,133.9c-5.6,0-9.6,1.3-9.6,4.4c0,2.3,1.4,3.5,4.1,3.5c3.7,0,5.5-1.8,5.5-5.5V133.9z"/>
		<path class="st0" d="M151.5,143.7c-0.6,0.9-1.5,1.7-2.9,2.2c-1.4,0.6-2.8,0.9-4.3,0.9c-2.8,0-5-0.7-6.7-2.1
			c-1.6-1.4-2.4-3.4-2.4-6c0-3,1.1-5.4,3.4-7.1c2.3-1.7,5.5-2.6,9.7-2.6c4.4,0,2.7-4.3-3.3-4.3c-2.3,0-4.2,0.4-5.8,1.1l-1.3-4.7
			c2.1-1,4.6-1.5,7.5-1.5c4,0,6.9,0.9,8.8,2.7c1.9,1.8,2.8,5.3,2.8,10.3v5.6c0,3.5,0.7,5.7,2.1,6.6c-0.5,0.9-1.7,1.9-3.8,1.9
			C152.9,146.8,151.7,144.4,151.5,143.7z M150.9,133.9c-5.6,0-9.6,1.3-9.6,4.4c0,2.3,1.4,3.5,4.1,3.5c3.7,0,5.5-1.8,5.5-5.5V133.9z"
			/>
		<path class="st0" d="M61.1,144.6l2.2-4.9c1.8,1.5,3.9,2.2,6.2,2.2c2.4,0,3.6-0.8,3.6-2.5c0-1-0.4-1.8-1.1-2.4
			c-0.7-0.6-2.1-1.4-4.2-2.2c-4.5-1.9-6.8-4.5-6.8-7.9c0-2.3,0.9-4,2.6-5.3c1.7-1.3,3.9-1.9,6.6-1.9c2.7,0,5.3,0.6,7.7,1.8l-1.8,4.7
			c-1.3-1.1-3.2-1.7-5.6-1.7c-2.1,0-3.2,0.8-3.2,2.5c0,0.7,0.3,1.3,1.1,1.8c0.7,0.5,2.2,1.3,4.5,2.2c2.3,0.9,4,2,5,3.3
			c1,1.3,1.5,2.8,1.5,4.7c0,2.4-0.9,4.3-2.7,5.7c-1.8,1.4-4.3,2.1-7.3,2.1c-1.7,0-3.1-0.1-4.2-0.4C64.1,146,62.8,145.5,61.1,144.6z"
			/>
		<path class="st0" d="M96.6,146.3h-11v-35.8c4.8-0.2,8.2-0.3,10.1-0.3c3.7,0,6.6,0.8,8.7,2.4c2.1,1.6,3.1,3.9,3.1,6.8
			c0,2.8-1.5,5.1-4.5,6.7c4.4,1.5,6.7,4.7,6.7,9.6c0,3.3-1.2,5.8-3.7,7.8C103.7,145.3,100.5,146.3,96.6,146.3z M92,115.6v8.6
			c1,0.1,2,0.1,3.1,0.1c4.1,0,6.2-1.6,6.2-4.7c0-2.8-1.9-4.1-5.6-4.1C94.7,115.4,93.4,115.5,92,115.6z M92,129.1v11.8
			c1.3,0.1,2.3,0.2,3.1,0.2c2.8,0,4.9-0.5,6.2-1.4c1.3-1,1.9-2.6,1.9-4.8c0-2-0.6-3.5-1.8-4.4c-1.2-0.9-3.3-1.4-6.2-1.4
			C94.6,129,93.5,129.1,92,129.1z"/>
		<path class="st0" d="M131.2,125.8c-1.1-0.7-2.3-1.1-3.6-1.1c-1.4,0-2.7,0.6-3.8,1.9c-1.1,1.3-1.6,2.9-1.6,4.7v14.9h-6.1v-26.2h6.1
			v2.4c1.7-1.9,4-2.9,6.8-2.9c2.1,0,3.7,0.3,4.8,1L131.2,125.8z"/>
		<polygon class="st0" points="166.2,146.3 166.2,125.1 162.9,125.1 162.9,120.1 172.4,120.1 172.4,146.3 		"/>
		<path class="st1" d="M169.4,108.4c1.1,0,2,0.4,2.8,1.2c0.8,0.8,1.2,1.7,1.2,2.8s-0.4,2-1.2,2.8c-0.8,0.8-1.7,1.2-2.8,1.2
			s-2-0.4-2.8-1.2c-0.8-0.8-1.2-1.7-1.2-2.8s0.4-2,1.2-2.8C167.4,108.8,168.3,108.4,169.4,108.4z"/>
		<path class="st0" d="M197.4,146.3v-15.1c0-2.2-0.4-3.9-1.3-4.9c-0.9-1-2.3-1.5-4.2-1.5c-0.9,0-1.9,0.3-2.9,0.8
			c-1,0.5-1.8,1.1-2.4,1.9v18.9h-6.1v-26.2h4.4l1.1,2.4c1.7-2,4.1-2.9,7.4-2.9c3.1,0,5.6,0.9,7.4,2.8c1.8,1.9,2.7,4.5,2.7,7.8v16.1
			H197.4z"/>
	</g>
	<path class="st1" d="M139.2,42.4l0.1-5.1l0,0c0-17-11.3-31.3-26.8-35.9c0,0,0,0,0,0c-0.5-0.2-1.1-0.3-1.7-0.5c0,0-0.1,0-0.1,0
		c-0.5-0.1-1.1-0.2-1.6-0.4c-0.1,0-0.2,0-0.2,0c-0.5-0.1-1-0.2-1.5-0.3c-0.1,0-0.2,0-0.4,0c-0.5-0.1-0.9-0.1-1.4-0.2
		c-0.2,0-0.4,0-0.6,0c-0.4,0-0.8-0.1-1.3-0.1c-0.4,0-0.8,0-1.2,0c-0.2,0-0.4,0-0.6,0v0c0,0-0.1,0-0.1,0c0,0,0,0,0,0c0,0,0,0,0,0
		c0,0-0.1,0-0.1,0v0c-0.6,0-1.3,0-1.9,0.1c0,0-0.1,0-0.1,0c-0.6,0-1.2,0.1-1.8,0.1c-0.1,0-0.1,0-0.2,0c-0.5,0.1-1.1,0.1-1.6,0.2
		c-0.1,0-0.2,0-0.2,0c-0.5,0.1-1.1,0.2-1.6,0.3c-0.1,0-0.2,0-0.2,0.1c-0.5,0.1-1,0.2-1.6,0.4c-0.1,0-0.2,0-0.2,0.1
		c-0.5,0.1-1,0.3-1.5,0.4c-0.1,0-0.1,0-0.2,0.1C90,1.8,89.5,2,89,2.2c-0.1,0-0.1,0-0.2,0.1c-0.5,0.2-1,0.4-1.5,0.6c0,0-0.1,0-0.1,0
		c-0.5,0.2-1.1,0.5-1.6,0.7c0,0,0,0-0.1,0c-3.3,1.6-6.4,3.7-9.1,6.2c0,0,0,0,0,0.1c-7.4,6.8-12,16.6-12,27.5l0,0l0.1,5.1
		c-4.2,1-5.1,6.6-4.8,10.9c0.4,5.1,3.5,7.7,7.8,7.7c0,0-0.5-5.3,0.1-8.5c0.3,5.5,2.2,12,5.2,18.1c0,0,0,0.1,0.1,0.1
		c0.1,0.2,0.2,0.4,0.3,0.7c3.4,6.7,8.1,12.6,13.6,17.6c1.3,1,7.8,5.8,15.1,5.8c7.9,0,14.1-5,15.5-6.2c4.4-4,8.3-8.7,11.4-13.9
		c4.2-7.3,7-15.4,7.4-22.2c0.1,0.6,0.2,1.2,0.2,1.9c0,0,0-0.1,0-0.1c0.2,3.1-0.2,6.9-0.1,6.9c4.3,0,7.4-2.6,7.8-7.7
		C144.3,49,143.4,43.4,139.2,42.4z M115,46.3c0-2.2,1.8-3.9,3.9-4c2.2,0,3.9,1.8,3.9,4c0,2.2-1.8,4-3.9,4
		C116.7,50.2,115,48.5,115,46.3z M104.4,28.4v-5.8V8.2V8.1c1.5-1.2,3.5-1.9,5.6-1.9c4.7,0,8.6,3.6,9.1,8.3c0,0,0,0,0,0c0,0,0,0,0,0
		c0.5-0.1,0.9-0.1,1.4-0.1c4.1,0,7.3,3.3,7.3,7.4c0,0.4-0.1,0.7-0.1,1.1c0.7,0.3,3.3,1.7,4.3,5.5c0.5,1.9-1,3.7-3,3.7l-21.1,0
		C105.9,31.9,104.4,30.3,104.4,28.4z M80.8,46.3c0-2.2,1.8-3.9,3.9-4c2.2,0,3.9,1.8,3.9,4c0,2.2-1.8,4-3.9,4
		C82.6,50.2,80.8,48.5,80.8,46.3z M74.6,31.9c-2,0-3.5-1.8-3-3.7c1-3.9,3.6-5.2,4.3-5.5c-0.1-0.3-0.1-0.7-0.1-1.1
		c0-4.1,3.3-7.3,7.3-7.4c0.5,0,0.9,0.1,1.4,0.1c0,0,0,0,0,0c0,0,0,0,0,0c0.5-4.6,4.3-8.3,9.1-8.3c2.1,0,4,0.7,5.6,1.9v0.1v14.4v5.8
		c0,1.9-1.6,3.5-3.5,3.5L74.6,31.9z"/>
</g>
</svg>
